<?xml version="1.0" encoding="UTF-8"?>
<svg version="1.1" xmlns="http://www.w3.org/2000/svg" width="200" height="200">
<path d="M0 0 C15.55375662 11.92844492 23.00547251 27.30105797 27.34765625 46.1171875 C37.00539693 40.00621014 40.2025558 32.58724207 43.2578125 21.81640625 C44.49611739 18.74949343 45.7798251 17.18199203 48.34765625 15.1171875 C51.78515625 14.4921875 51.78515625 14.4921875 55.34765625 15.1171875 C58.25913842 17.24014325 59.11401175 17.9038373 60.34765625 21.1171875 C61.93360607 37.91383787 52.6208694 58.47454524 42.41015625 71.4921875 C40.31039656 73.98434761 38.14510605 76.32036968 35.84375 78.62890625 C35.02003906 79.47066406 34.19632813 80.31242187 33.34765625 81.1796875 C32.20296875 82.27990234 32.20296875 82.27990234 31.03515625 83.40234375 C27.14202244 89.66560301 29.60663217 97.90289307 31.03515625 104.7421875 C31.21014648 105.60593994 31.38513672 106.46969238 31.56542969 107.35961914 C32.99896266 114.1338755 34.98835619 120.5642551 37.39453125 127.05078125 C38.29660564 129.95294681 38.55020847 132.10703647 38.34765625 135.1171875 C29.61266974 135.99068615 21.6888114 132.61587546 13.859375 128.953125 C7.16557789 126.72532938 2.41180155 128.66263075 -3.52734375 131.6171875 C-14.73204039 136.79253147 -14.73204039 136.79253147 -20.65234375 135.1171875 C-22.19178666 134.3187553 -23.71160686 133.4818593 -25.21484375 132.6171875 C-32.01792232 128.90255801 -39.16489539 129.12698578 -46.65234375 130.1171875 C-49.44187576 131.1943703 -51.86629658 132.48860169 -54.453125 133.9765625 C-58.35512508 136.00033519 -61.40035535 136.13074287 -65.65234375 135.1171875 C-69.11333781 133.78349234 -72.48483871 132.26017219 -75.80517578 130.60839844 C-80.80423797 128.18468543 -84.97761356 127.02749889 -90.54101562 128.67724609 C-92.50763909 129.40604778 -94.42095431 130.20851728 -96.33984375 131.0546875 C-106.21851666 135.27441795 -106.21851666 135.27441795 -111.90234375 135.1796875 C-113.75859375 135.14875 -113.75859375 135.14875 -115.65234375 135.1171875 C-115.27235348 130.84229694 -114.41267397 127.30152665 -112.83984375 123.3046875 C-110.12950136 116.12326933 -108.51696353 108.75288651 -107.06738281 101.23095703 C-106.70036212 99.36174223 -106.28535838 97.50208854 -105.86328125 95.64453125 C-105.09074786 91.17652095 -104.79246342 88.43714399 -107.32421875 84.55078125 C-109.67292928 81.96315016 -112.14922535 79.55483972 -114.65234375 77.1171875 C-126.17533093 63.38812656 -135.56537894 44.69879975 -135.96484375 26.5546875 C-136.00222656 25.43964844 -136.03960937 24.32460938 -136.078125 23.17578125 C-135.65234375 20.1171875 -135.65234375 20.1171875 -133.8515625 17.7421875 C-130.6765965 15.39620907 -128.50215922 15.63596057 -124.65234375 16.1171875 C-121.46163252 17.78451405 -120.72564459 18.92084597 -119.44921875 22.33984375 C-119.10375 23.60699219 -118.75828125 24.87414063 -118.40234375 26.1796875 C-115.66932345 35.30885692 -111.19710884 42.42943443 -102.65234375 47.1171875 C-102.63816406 46.47394531 -102.62398437 45.83070312 -102.609375 45.16796875 C-101.76077866 29.09050845 -93.80706285 15.35491824 -82.31640625 4.40234375 C-58.76451477 -15.7997919 -25.39283396 -18.02554635 0 0 Z " fill="#EFEFEF" transform="translate(138.65234375,27.8828125)"/>
<path d="M0 0 C3.65996655 0.01139353 7.31964228 0.00459072 10.979599 -0.00685883 C25.10063016 -0.04453711 39.17464586 0.11446679 53.26855469 1.08886719 C54.85301392 1.19252594 54.85301392 1.19252594 56.46948242 1.29827881 C63.67646125 1.86887228 70.43593714 3.31448658 77.39355469 5.26074219 C77.39355469 6.25074219 77.39355469 7.24074219 77.39355469 8.26074219 C69.34386411 10.51248358 61.60438729 11.88726897 53.26855469 12.43261719 C52.11750244 12.51219666 50.9664502 12.59177612 49.78051758 12.67376709 C36.12391369 13.52747507 22.46488164 13.56427293 8.78710938 13.52148438 C5.12714282 13.51009085 1.4674671 13.51689366 -2.19248962 13.5283432 C-16.31352078 13.56602148 -30.38753648 13.40701758 -44.48144531 12.43261719 C-45.53775146 12.36351135 -46.59405762 12.29440552 -47.68237305 12.22320557 C-54.88935187 11.6526121 -61.64882776 10.2069978 -68.60644531 8.26074219 C-68.60644531 7.27074219 -68.60644531 6.28074219 -68.60644531 5.26074219 C-60.55675473 3.00900079 -52.81727792 1.6342154 -44.48144531 1.08886719 C-43.33039307 1.00928772 -42.17934082 0.92970825 -40.9934082 0.84771729 C-27.33680432 -0.0059907 -13.67777227 -0.04278855 0 0 Z " fill="#43423B" transform="translate(95.6064453125,170.7392578125)"/>
<path d="M0 0 C1.17369141 0.01353516 1.17369141 0.01353516 2.37109375 0.02734375 C3.09425781 0.03894531 3.81742188 0.05054687 4.5625 0.0625 C6.26989323 0.0625 7.97830734 0.0418245 9.68359375 -0.04296875 C10.44800781 -0.07003906 11.21242188 -0.09710938 12 -0.125 C12.76183594 -0.15980469 13.52367188 -0.19460937 14.30859375 -0.23046875 C17.25912307 0.15304893 18.4347598 0.98862664 20.5625 3.0625 C21.06420898 5.69458008 21.06420898 5.69458008 21.05859375 8.83203125 C21.05923828 9.96833984 21.05988281 11.10464844 21.06054688 12.27539062 C21.04056641 13.46326172 21.02058594 14.65113281 21 15.875 C21.00708984 17.05126953 21.01417969 18.22753906 21.02148438 19.43945312 C20.94196576 30.26010129 20.94196576 30.26010129 17.5625 35.0625 C12.90949155 39.26155641 10.02949458 40.42869655 3.87890625 40.33984375 C-0.83203086 39.77580238 -3.47403654 37.12409399 -6.546875 33.73828125 C-9.76543652 28.7578446 -9.24005665 22.60224701 -9.375 16.875 C-9.42978516 15.68712891 -9.48457031 14.49925781 -9.54101562 13.27539062 C-9.82274921 4.56142041 -9.82274921 4.56142041 -8.04907227 2.2644043 C-5.22584506 0.15885248 -3.46547725 -0.05121395 0 0 Z " fill="#FE6343" transform="translate(94.4375,117.9375)"/>
<path d="M0 0 C0.89432739 -0.00630432 1.78865479 -0.01260864 2.71008301 -0.019104 C4.16166809 -0.01303131 4.16166809 -0.01303131 5.64257812 -0.00683594 C6.6338269 -0.00874939 7.62507568 -0.01066284 8.6463623 -0.01263428 C10.7445501 -0.01399679 12.84274631 -0.01029576 14.94091797 -0.00195312 C18.16067358 0.00874535 21.37987121 -0.0018463 24.59960938 -0.01464844 C26.63476686 -0.01332685 28.669924 -0.01076449 30.70507812 -0.00683594 C31.67280151 -0.0108844 32.6405249 -0.01493286 33.63757324 -0.019104 C34.53190063 -0.01279968 35.42622803 -0.00649536 36.34765625 0 C37.13660278 0.00159119 37.92554932 0.00318237 38.73840332 0.00482178 C40.67382812 0.25878906 40.67382812 0.25878906 42.67382812 2.25878906 C43.60437785 12.494836 40.06079182 22.61831264 34.67382812 31.25878906 C33.68382813 31.75378906 33.68382813 31.75378906 32.67382812 32.25878906 C32.61775391 31.1025 32.61775391 31.1025 32.56054688 29.92285156 C32.49480469 28.91996094 32.4290625 27.91707031 32.36132812 26.88378906 C32.30332031 25.88605469 32.2453125 24.88832031 32.18554688 23.86035156 C31.93224609 22.57257813 31.93224609 22.57257813 31.67382812 21.25878906 C28.50371238 19.14537856 27.78212068 19.02554029 24.17382812 19.13378906 C23.40039062 19.15183594 22.62695312 19.16988281 21.83007812 19.18847656 C21.11851563 19.21167969 20.40695313 19.23488281 19.67382812 19.25878906 C17.96675665 19.25878906 16.25957142 19.25192293 14.55273438 19.22363281 C13.78832031 19.21460937 13.02390625 19.20558594 12.23632812 19.19628906 C11.09357422 19.17888672 11.09357422 19.17888672 9.92773438 19.16113281 C7.35206492 19.19734093 7.35206492 19.19734093 3.67382812 20.25878906 C3.34382813 23.55878906 3.01382813 26.85878906 2.67382812 30.25878906 C-4.00748652 23.57747441 -5.81148267 13.77861366 -6.47851562 4.62207031 C-6.19378606 0.20511168 -3.83215553 0.00772888 0 0 Z " fill="#FEB0CA" transform="translate(82.326171875,99.7412109375)"/>
<path d="M0 0 C3.83084349 2.61193874 6.65161815 5.67823629 8.75 9.875 C9.57058907 16.35899884 8.58048931 21.5388152 4.75 26.875 C1.04197404 30.58302596 -2.10931835 31.19024771 -7.1875 31.4375 C-13.14034652 31.23783931 -15.96746006 29.97134255 -20.25 25.875 C-22.08218656 23.1665503 -22.25 22.18939938 -22.25 18.875 C-22.91 18.875 -23.57 18.875 -24.25 18.875 C-24.70365686 12.4103897 -24.02766429 9.18414982 -20.25 3.875 C-14.26807133 -1.66922657 -7.65443831 -2.64961326 0 0 Z " fill="#66686A" transform="translate(80.25,54.125)"/>
<path d="M0 0 C6.49155335 2.51474589 12.58545958 2.11262745 19.21875 0.34375 C19.96125 0.01375 20.70375 -0.31625 21.46875 -0.65625 C22.0875 0.1275 22.70625 0.91125 23.34375 1.71875 C25.36733661 4.31212647 25.36733661 4.31212647 27.46875 6.34375 C13.65251848 14.19866335 13.65251848 14.19866335 6.46875 12.34375 C3.01307323 10.99741833 -0.36401982 9.48628766 -3.68457031 7.83520508 C-8.68299566 5.41058657 -12.8569372 4.25418517 -18.41992188 5.90380859 C-20.38654534 6.63261028 -22.29986056 7.43507978 -24.21875 8.28125 C-34.09742291 12.50098045 -34.09742291 12.50098045 -39.78125 12.40625 C-41.6375 12.3753125 -41.6375 12.3753125 -43.53125 12.34375 C-43.07302532 8.87433454 -42.63993317 5.66979951 -41.53125 2.34375 C-27.54960243 -5.90110207 -14.42659142 -6.76645438 0 0 Z " fill="#E0E0E0" transform="translate(66.53125,150.65625)"/>
<path d="M0 0 C1.63195312 0.50466797 1.63195312 0.50466797 3.296875 1.01953125 C6 2 6 2 7.375 4.3125 C7.99651011 6.98499346 8.15615278 9.26732641 8 12 C-0.73498651 12.87349865 -8.65884485 9.49868796 -16.48828125 5.8359375 C-23.18207836 3.60814188 -27.9358547 5.54544325 -33.875 8.5 C-44.98598045 13.63205735 -44.98598045 13.63205735 -51 12 C-60.3315508 8.3368984 -60.3315508 8.3368984 -62 5 C-60.824375 4.1028125 -60.824375 4.1028125 -59.625 3.1875 C-56.85425677 1.08914751 -56.85425677 1.08914751 -55 -2 C-55 -1.34 -55 -0.68 -55 0 C-46.76479159 2.33910849 -39.71368066 1.63449477 -32 -2 C-20.02146392 -7.53563523 -11.70589645 -5.01681276 0 0 Z " fill="#E1E0E0" transform="translate(169,151)"/>
<path d="M0 0 C3.47485838 2.07012839 5.74352278 4.11634312 7 8 C7.52055293 11.99090581 7.16996586 13.69523363 5.1875 17.25 C3.00736386 19.99074258 1.46430532 21.76417555 -2.0859375 22.3359375 C-6.15298077 22.40534097 -8.39674818 22.37221921 -11.9375 20.1875 C-14.68995117 17.26823361 -15.93719529 15.67829089 -16.3125 11.625 C-15.90641449 6.91440807 -14.47043109 4.64009622 -11.375 1.1875 C-7.64578296 -0.67710852 -4.08075945 -0.66312341 0 0 Z " fill="#68696B" transform="translate(132,63)"/>
<path d="M0 0 C0 1.32 0 2.64 0 4 C-9.74352629 8.33045613 -22.44704517 8.89265161 -32.625 5.5 C-33.73875 5.005 -34.8525 4.51 -36 4 C-36 2.68 -36 1.36 -36 0 C-23.73645407 -4.20464432 -12.26354593 -4.20464432 0 0 Z " fill="#FEFEFE" transform="translate(118,27)"/>
<path d="M0 0 C3.41335847 2.32728987 5.51091258 4.38465784 7.75 7.875 C8.15010038 10.68583181 7.99648601 13.01576228 7.75 15.875 C6.43677212 14.89680976 5.12443848 13.9174189 3.8125 12.9375 C3.08160156 12.39222656 2.35070312 11.84695312 1.59765625 11.28515625 C-0.25 9.875 -0.25 9.875 -1.25 8.875 C-6.79466653 8.34898964 -11.68048034 8.11826731 -16.75 10.5625 C-19.21694078 12.84442022 -21.28341271 15.15203299 -23.25 17.875 C-24.11002119 8.20453952 -24.11002119 8.20453952 -21.125 4.4375 C-14.6209162 -1.35961817 -8.24553956 -2.85422523 0 0 Z " fill="#555555" transform="translate(80.25,54.125)"/>
<path d="M0 0 C1.17369141 0.01353516 1.17369141 0.01353516 2.37109375 0.02734375 C3.09425781 0.03894531 3.81742188 0.05054687 4.5625 0.0625 C6.27017472 0.0625 7.97965972 0.034843 9.68359375 -0.078125 C15.88803674 -0.37108352 15.88803674 -0.37108352 19.1875 1.75 C20.5625 4.0625 20.5625 4.0625 20.3125 6.8125 C20.065 7.555 19.8175 8.2975 19.5625 9.0625 C18.7271875 8.90136719 17.891875 8.74023438 17.03125 8.57421875 C13.33232563 8.0285441 9.80063917 7.89399461 6.0625 7.875 C4.15984375 7.85373047 4.15984375 7.85373047 2.21875 7.83203125 C-1.41253669 8.06092646 -4.11694491 8.59266605 -7.4375 10.0625 C-8.0975 11.0525 -8.7575 12.0425 -9.4375 13.0625 C-9.51881463 11.62594146 -9.57683559 10.1880517 -9.625 8.75 C-9.65980469 7.94949219 -9.69460937 7.14898437 -9.73046875 6.32421875 C-9.37062505 3.54622541 -8.60508647 2.76822785 -6.4375 1.0625 C-4.07154857 -0.12047571 -2.62973681 -0.03886311 0 0 Z " fill="#FF866F" transform="translate(94.4375,117.9375)"/>
<path d="M0 0 C2.87029869 1.79393668 4.49131638 2.98263276 6 6 C6.04022391 8.3329866 6.04320247 10.66706666 6 13 C5.13375 12.195625 4.2675 11.39125 3.375 10.5625 C0.30333207 8.03161868 -1.91730322 7 -6 7 C-9.66008487 8.4353274 -12.43233976 10.00439638 -15 13 C-15.7230591 5.88991889 -15.7230591 5.88991889 -12.5625 2 C-8.64742225 -0.73684345 -4.60096034 -0.94052781 0 0 Z " fill="#555555" transform="translate(132,63)"/>
<path d="M0 0 C2.0625 1.25 2.0625 1.25 3 3 C2.9375 5.5625 2.9375 5.5625 2 8 C-0.41518031 9.95072256 -2.33968259 10.04323233 -5.4375 10.4375 C-9.88362466 9.89148469 -11.20538724 8.38740941 -14 5 C-13.08358378 2.70895944 -12.30881685 1.24942899 -10.375 -0.3125 C-6.78568909 -1.35151105 -3.59271016 -0.92101256 0 0 Z " fill="#E2DEDA" transform="translate(67,92)"/>
<path d="M0 0 C0.99 0.66 1.98 1.32 3 2 C3.3125 4.5 3.3125 4.5 3 7 C0.15386732 9.84613268 -2.04000344 9.79864424 -6 10 C-8.875 8.8125 -8.875 8.8125 -11 7 C-11.8125 4.8125 -11.8125 4.8125 -12 3 C-8.22438081 -0.77561919 -5.06310909 -0.40183405 0 0 Z " fill="#E0E0E0" transform="translate(143,92)"/>
</svg>
