<?xml version="1.0" encoding="UTF-8"?>
<svg version="1.1" xmlns="http://www.w3.org/2000/svg" width="380" height="380">
<path d="M0 0 C3.88718012 2.97291626 7.22436142 6.14603084 10.24853516 9.98754883 C11.68223443 11.86195996 11.68223443 11.86195996 13.61572266 13.63598633 C28.81665309 29.41270958 33.3811759 52.68629149 33.67822266 73.77661133 C33.33919132 81.45467401 33.33919132 81.45467401 31.67822266 84.77661133 C33.41652344 84.91776367 33.41652344 84.91776367 35.18994141 85.06176758 C39.75723788 85.64134314 43.41675699 87.12559431 47.49072266 89.21411133 C48.18286865 89.56683105 48.87501465 89.91955078 49.58813477 90.28295898 C65.90823229 98.98322663 74.36470439 113.05638609 80.49462891 130.03833008 C84.9349702 145.84346098 81.09889027 162.20997859 74.05322266 176.52661133 C64.95291549 191.92534991 51.00648036 201.81877386 33.72279835 206.28151226 C23.74475965 208.46703037 13.61320098 208.06489631 3.45629883 208.05126953 C1.30992964 208.05562201 -0.83643799 208.06080694 -2.98280334 208.0667572 C-8.78870957 208.08010123 -14.59455051 208.08073096 -20.40046906 208.0781939 C-25.2585234 208.07712099 -30.1165647 208.08201577 -34.97461623 208.08679932 C-46.44199048 208.09787878 -57.90933197 208.09834081 -69.37670898 208.09228516 C-81.18108819 208.08624709 -92.98534814 208.0985558 -104.78970701 208.11985523 C-114.94803302 208.13750623 -125.1063212 208.14346704 -135.26466197 208.14021748 C-141.32136479 208.13840995 -147.37798255 208.14098773 -153.4346714 208.15493202 C-159.13356997 208.16756262 -164.8322835 208.1655169 -170.53117943 208.15252113 C-172.61357055 208.15016712 -174.69597491 208.15284752 -176.77835083 208.16114426 C-190.95024385 208.21350392 -204.73119689 207.96341387 -217.57177734 201.15161133 C-218.57325806 200.63328735 -218.57325806 200.63328735 -219.5949707 200.10449219 C-234.74231829 191.93301723 -245.2582599 177.638335 -250.19677734 161.27661133 C-253.950382 144.1493853 -251.7855381 126.63610298 -242.41943359 111.72192383 C-233.39756254 99.05434325 -222.63979273 89.9306494 -207.32177734 85.77661133 C-207.35658203 84.97739258 -207.39138672 84.17817383 -207.42724609 83.35473633 C-207.8890353 64.61928839 -200.99899243 50.15600303 -188.30224609 36.62426758 C-176.10244722 24.83188314 -160.24671562 20.30926593 -143.63427734 20.27099609 C-135.35115489 20.50209521 -127.99791811 22.81203283 -120.32177734 25.77661133 C-120.06138672 25.04442383 -119.80099609 24.31223633 -119.53271484 23.55786133 C-118.29535415 20.71592321 -116.88666347 18.68240897 -114.94677734 16.27661133 C-114.06892578 15.17833008 -114.06892578 15.17833008 -113.17333984 14.05786133 C-112.56232422 13.30504883 -111.95130859 12.55223633 -111.32177734 11.77661133 C-110.71333984 10.96063477 -110.10490234 10.1446582 -109.47802734 9.30395508 C-106.99797116 6.39707763 -104.2359896 4.1213135 -101.19677734 1.83911133 C-100.61984131 1.40381104 -100.04290527 0.96851074 -99.44848633 0.52001953 C-69.39252543 -21.87110958 -30.29296223 -22.14169193 0 0 Z " fill="#FEFEFE" transform="translate(274.32177734375,93.223388671875)"/>
<path d="M0 0 C3.88718012 2.97291626 7.22436142 6.14603084 10.24853516 9.98754883 C11.68223443 11.86195996 11.68223443 11.86195996 13.61572266 13.63598633 C28.81665309 29.41270958 33.3811759 52.68629149 33.67822266 73.77661133 C33.33919132 81.45467401 33.33919132 81.45467401 31.67822266 84.77661133 C33.41652344 84.91776367 33.41652344 84.91776367 35.18994141 85.06176758 C39.75723788 85.64134314 43.41675699 87.12559431 47.49072266 89.21411133 C48.18286865 89.56683105 48.87501465 89.91955078 49.58813477 90.28295898 C65.90823229 98.98322663 74.36470439 113.05638609 80.49462891 130.03833008 C84.9349702 145.84346098 81.09889027 162.20997859 74.05322266 176.52661133 C64.95291549 191.92534991 51.00648036 201.81877386 33.72279835 206.28151226 C23.74475965 208.46703037 13.61320098 208.06489631 3.45629883 208.05126953 C1.30992964 208.05562201 -0.83643799 208.06080694 -2.98280334 208.0667572 C-8.78870957 208.08010123 -14.59455051 208.08073096 -20.40046906 208.0781939 C-25.2585234 208.07712099 -30.1165647 208.08201577 -34.97461623 208.08679932 C-46.44199048 208.09787878 -57.90933197 208.09834081 -69.37670898 208.09228516 C-81.18108819 208.08624709 -92.98534814 208.0985558 -104.78970701 208.11985523 C-114.94803302 208.13750623 -125.1063212 208.14346704 -135.26466197 208.14021748 C-141.32136479 208.13840995 -147.37798255 208.14098773 -153.4346714 208.15493202 C-159.13356997 208.16756262 -164.8322835 208.1655169 -170.53117943 208.15252113 C-172.61357055 208.15016712 -174.69597491 208.15284752 -176.77835083 208.16114426 C-190.95024385 208.21350392 -204.73119689 207.96341387 -217.57177734 201.15161133 C-218.57325806 200.63328735 -218.57325806 200.63328735 -219.5949707 200.10449219 C-234.74231829 191.93301723 -245.2582599 177.638335 -250.19677734 161.27661133 C-253.950382 144.1493853 -251.7855381 126.63610298 -242.41943359 111.72192383 C-233.39756254 99.05434325 -222.63979273 89.9306494 -207.32177734 85.77661133 C-207.35658203 84.97739258 -207.39138672 84.17817383 -207.42724609 83.35473633 C-207.8890353 64.61928839 -200.99899243 50.15600303 -188.30224609 36.62426758 C-176.10244722 24.83188314 -160.24671562 20.30926593 -143.63427734 20.27099609 C-135.35115489 20.50209521 -127.99791811 22.81203283 -120.32177734 25.77661133 C-120.06138672 25.04442383 -119.80099609 24.31223633 -119.53271484 23.55786133 C-118.29535415 20.71592321 -116.88666347 18.68240897 -114.94677734 16.27661133 C-114.06892578 15.17833008 -114.06892578 15.17833008 -113.17333984 14.05786133 C-112.56232422 13.30504883 -111.95130859 12.55223633 -111.32177734 11.77661133 C-110.71333984 10.96063477 -110.10490234 10.1446582 -109.47802734 9.30395508 C-106.99797116 6.39707763 -104.2359896 4.1213135 -101.19677734 1.83911133 C-100.61984131 1.40381104 -100.04290527 0.96851074 -99.44848633 0.52001953 C-69.39252543 -21.87110958 -30.29296223 -22.14169193 0 0 Z M-98.32177734 19.77661133 C-104.97040555 28.146458 -109.81804869 37.1174891 -114.32177734 46.77661133 C-114.92763672 46.38989258 -115.53349609 46.00317383 -116.15771484 45.60473633 C-128.69807054 37.81042294 -140.89115087 33.72534856 -155.75927734 36.40161133 C-168.1291479 39.60452424 -178.96624828 46.97360292 -185.75927734 57.83911133 C-193.27283734 71.48662285 -193.31636028 83.69674724 -190.32177734 98.77661133 C-191.20865234 98.69411133 -192.09552734 98.61161133 -193.00927734 98.52661133 C-205.3022337 98.60126491 -215.42926934 105.08309853 -224.13427734 113.15161133 C-233.39951329 122.91826005 -236.73252985 136.16669774 -236.59912109 149.30004883 C-235.62773053 161.47663471 -229.31878238 172.67724347 -220.51708984 180.96020508 C-211.03801404 188.80321264 -200.84190706 192.25152392 -188.62014771 192.16429138 C-187.69718741 192.16967692 -186.77422712 192.17506246 -185.82329834 192.18061119 C-182.75901271 192.19481343 -179.69516381 192.18780621 -176.63085938 192.18066406 C-174.4222784 192.18637169 -172.21370036 192.19333746 -170.00512695 192.20146179 C-164.02572251 192.21936531 -158.04646505 192.21822999 -152.06704187 192.21251941 C-147.06718008 192.20942336 -142.06734635 192.21552468 -137.06748855 192.22155815 C-124.59413702 192.23639415 -112.12085065 192.23279772 -99.64750229 192.22069485 C-88.83768017 192.2107659 -78.02802931 192.2237011 -67.2182336 192.24762904 C-56.09400328 192.27206572 -44.96984186 192.28121772 -33.8455838 192.27497631 C-27.61005674 192.27161174 -21.37467113 192.27398873 -15.13916397 192.29122734 C-9.27361707 192.30673622 -3.40839615 192.30269692 2.45713806 192.2839222 C4.60325688 192.2802472 6.74940007 192.2833128 8.89549637 192.29380798 C25.08950214 192.366924 39.63397839 191.0506899 52.12353516 179.51879883 C61.36107596 169.7934671 66.40721452 158.22410761 67.05322266 144.71411133 C65.74095808 130.93533332 60.81569955 119.31023129 50.67822266 109.77661133 C41.64057301 102.45187362 31.49902244 98.57193704 19.92822266 98.71411133 C19.23083984 98.71862305 18.53345703 98.72313477 17.81494141 98.7277832 C16.10266463 98.73951113 14.39043232 98.7574448 12.67822266 98.77661133 C13.21962891 97.1755957 13.21962891 97.1755957 13.77197266 95.54223633 C20.16145831 75.52306109 19.43376714 55.53556696 10.49072266 36.40161133 C6.96028392 29.83755466 2.75647115 24.21820979 -2.32177734 18.77661133 C-2.98564453 18.05860352 -3.64951172 17.3405957 -4.33349609 16.60083008 C-16.30347005 4.85885563 -33.73601701 -1.07452575 -50.19677734 -1.41088867 C-68.07265177 -1.20902811 -86.17472042 6.54932611 -98.32177734 19.77661133 Z " fill="#2A2220" transform="translate(274.32177734375,93.223388671875)"/>
<path d="M0 0 C2.1875 0.3125 2.1875 0.3125 4 1 C4 4 4 4 1.5 6.6875 C0.675 7.450625 -0.15 8.21375 -1 9 C-1.66 7.02 -2.32 5.04 -3 3 C-1.75 1.4375 -1.75 1.4375 0 0 Z " fill="#2D2625" transform="translate(171,112)"/>
<path d="M0 0 C3.73487777 0.4979837 5.81237635 0.87491756 9 3 C9.70125 3.309375 10.4025 3.61875 11.125 3.9375 C13 5 13 5 14 8 C8.76481294 6.56032356 4.36973991 4.18303389 0 1 C0 0.67 0 0.34 0 0 Z " fill="#5B5453" transform="translate(48,288)"/>
<path d="M0 0 C1.258125 0.12375 2.51625 0.2475 3.8125 0.375 C4.87404297 0.47941406 4.87404297 0.47941406 5.95703125 0.5859375 C8 1 8 1 11 3 C7.59437148 3.77842938 4.49234244 4.09978121 1 4 C0.67 2.68 0.34 1.36 0 0 Z " fill="#413B3C" transform="translate(138,115)"/>
<path d="M0 0 C2 4 2 4 2 8 C2.66 8.66 3.32 9.32 4 10 C2.02 10 0.04 10 -2 10 C-1.34 6.7 -0.68 3.4 0 0 Z " fill="#43423E" transform="translate(289,182)"/>
<path d="M0 0 C0.59296875 0.22558594 1.1859375 0.45117188 1.796875 0.68359375 C1.136875 0.68359375 0.476875 0.68359375 -0.203125 0.68359375 C-0.533125 1.67359375 -0.863125 2.66359375 -1.203125 3.68359375 C-2.82645467 5.06936298 -4.49036965 6.41000643 -6.203125 7.68359375 C-6.863125 7.02359375 -7.523125 6.36359375 -8.203125 5.68359375 C-7.30284912 4.64827649 -6.38219465 3.6306521 -5.453125 2.62109375 C-4.68742187 1.76837891 -4.68742187 1.76837891 -3.90625 0.8984375 C-2.203125 -0.31640625 -2.203125 -0.31640625 0 0 Z " fill="#575452" transform="translate(91.203125,127.31640625)"/>
<path d="M0 0 C2.475 0.99 2.475 0.99 5 2 C1.78817851 3.90608098 -0.53882603 4.22266247 -4.25 4.125 C-5.14203125 4.10695313 -6.0340625 4.08890625 -6.953125 4.0703125 C-7.96632813 4.03550781 -7.96632813 4.03550781 -9 4 C-9 3.67 -9 3.34 -9 3 C-7.88625 2.87625 -6.7725 2.7525 -5.625 2.625 C-1.96896323 2.3534187 -1.96896323 2.3534187 0 0 Z " fill="#46433F" transform="translate(305,296)"/>
<path d="M0 0 C2.475 0.495 2.475 0.495 5 1 C5.33 3.31 5.66 5.62 6 8 C1.125 3.375 1.125 3.375 0 0 Z " fill="#544D4D" transform="translate(34,273)"/>
<path d="M0 0 C0.66 0.33 1.32 0.66 2 1 C1.01 2.485 1.01 2.485 0 4 C-0.33 4.99 -0.66 5.98 -1 7 C-2.65 7 -4.3 7 -6 7 C-4.02 4.69 -2.04 2.38 0 0 Z " fill="#605A5B" transform="translate(46,189)"/>
<path d="M0 0 C0.99 0.33 1.98 0.66 3 1 C0.6875 3.5 0.6875 3.5 -2 6 C-2.99 6 -3.98 6 -5 6 C-5 5.01 -5 4.02 -5 3 C-3.35 3 -1.7 3 0 3 C0 2.01 0 1.02 0 0 Z " fill="#605C5A" transform="translate(333,283)"/>
<path d="M0 0 C1.32 0.66 2.64 1.32 4 2 C2.35 3.98 0.7 5.96 -1 8 C-1.33 6.68 -1.66 5.36 -2 4 C-1.34 4 -0.68 4 0 4 C0 2.68 0 1.36 0 0 Z " fill="#5F5452" transform="translate(339,275)"/>
<path d="M0 0 C1.65 0 3.3 0 5 0 C5.33 1.32 5.66 2.64 6 4 C3 4 3 4 0 2 C0 1.34 0 0.68 0 0 Z " fill="#2F2929" transform="translate(155,136)"/>
<path d="M0 0 C0.99 0.33 1.98 0.66 3 1 C4.1875 3.5625 4.1875 3.5625 5 6 C3.33333333 6 1.66666667 6 0 6 C-1 3 -1 3 0 0 Z " fill="#504C49" transform="translate(285,105)"/>
<path d="M0 0 C3.45925163 1.2491742 6.14693203 2.67527795 9 5 C6.1875 5.3125 6.1875 5.3125 3 5 C1.125 2.5 1.125 2.5 0 0 Z " fill="#62605B" transform="translate(321,183)"/>
<path d="M0 0 C0.66 0.33 1.32 0.66 2 1 C1.67 1.66 1.34 2.32 1 3 C1.66 3.33 2.32 3.66 3 4 C1.02 4.33 -0.96 4.66 -3 5 C-2.625 3.0625 -2.625 3.0625 -2 1 C-1.34 0.67 -0.68 0.34 0 0 Z " fill="#1B1412" transform="translate(246,90)"/>
<path d="" fill="#DCD8D5" transform="translate(0,0)"/>
</svg>
