<?xml version="1.0" encoding="UTF-8"?>
<svg version="1.1" xmlns="http://www.w3.org/2000/svg" width="380" height="380">
<path d="M0 0 C1.86744249 -0.00107509 3.73488465 -0.00301713 5.60232544 -0.00575256 C10.63722395 -0.01056683 15.67203272 -0.00298875 20.70692039 0.00720048 C25.9939689 0.01603595 31.28101506 0.01422249 36.56806946 0.01383972 C45.44041429 0.0147738 54.31272474 0.02342402 63.18505859 0.03710938 C73.42514684 0.05284664 83.66519752 0.05810681 93.90529698 0.05737382 C104.83785287 0.05669712 115.7703944 0.06364335 126.70294595 0.07282043 C129.84105945 0.07494588 132.97917062 0.07566079 136.11728477 0.07605934 C141.05611024 0.07706782 145.99490449 0.08320555 150.93371964 0.09322548 C152.74043016 0.09613244 154.54714427 0.09737953 156.35385704 0.09679794 C173.59261568 0.09335016 188.51756208 0.23640848 202.1496582 12.24291992 C202.82770508 12.81655273 203.50575195 13.39018555 204.2043457 13.98120117 C215.56849627 24.33758744 218.27863667 38.99535636 221.8371582 53.30541992 C222.35361686 55.33911186 222.87138028 57.37247286 223.39038086 59.40551758 C224.45872269 63.59873459 225.51947311 67.79376003 226.57397461 71.99047852 C228.08346234 77.99248648 229.61827511 83.98775866 231.16137695 89.98120117 C235.0728232 105.1841531 238.96746822 120.39074999 242.72216797 135.63330078 C244.46265903 142.63804872 246.29722107 149.61661897 248.1418457 156.59448242 C248.69146168 158.67934737 249.24102158 160.7642271 249.79052734 162.84912109 C250.88675657 167.00746504 251.99146322 171.16343847 253.10058594 175.31835938 C253.61334753 177.26057888 254.12581102 179.20287712 254.63793945 181.14526367 C254.87620453 182.02876495 255.1144696 182.91226624 255.35995483 183.82254028 C257.84027664 193.29034301 258.33101697 202.42200824 258.3371582 212.18041992 C258.3494043 213.20071289 258.36165039 214.22100586 258.37426758 215.2722168 C258.40642071 232.0668704 253.38534185 244.92068525 242.1574707 257.46948242 C225.41190308 273.83590512 203.01252356 272.54018154 181.2824707 272.48583984 C178.78098501 272.48691431 176.27949956 272.48885542 173.77801514 272.49159241 C167.71789867 272.49591794 161.65785476 272.49103245 155.59774923 272.48174211 C148.52436471 272.47129326 141.4509917 272.47143002 134.37760091 272.47191469 C121.74757202 272.47241401 109.11756855 272.46328928 96.48754883 272.44873047 C84.2622837 272.43464574 72.03704093 272.42755983 59.81176758 272.42822266 C58.68215194 272.42828259 58.68215194 272.42828259 57.52971578 272.42834374 C56.40195607 272.42840427 56.40195607 272.42840427 55.25141335 272.42846602 C41.28947101 272.42915788 27.32753807 272.42325432 13.3655988 272.41431281 C8.44777275 272.41131073 3.52994845 272.41023495 -1.38787842 272.4097805 C-8.01998522 272.40902259 -14.6520718 272.40262984 -21.28417206 272.39261436 C-23.71003833 272.38970858 -26.13590727 272.38846007 -28.56177521 272.3890419 C-73.91977733 272.39580056 -73.91977733 272.39580056 -90.6003418 257.11791992 C-105.28058385 241.14236239 -106.49455331 223.72458775 -105.9777832 203.12036133 C-105.69132276 196.65250159 -104.40944575 190.51687435 -102.8503418 184.24291992 C-102.59800781 183.19523438 -102.34567383 182.14754883 -102.08569336 181.06811523 C-99.22800367 169.21508616 -96.21653525 157.42839167 -92.83496094 145.71362305 C-91.21964503 140.01976465 -89.75389467 134.28920378 -88.2878418 128.55541992 C-87.95239409 127.25012053 -87.61677624 125.94486486 -87.28100586 124.63964844 C-85.42961062 117.43609895 -83.59124589 110.22923734 -81.75575256 103.0216217 C-80.77940001 99.18830932 -79.80177372 95.35532203 -78.82424927 91.52230835 C-78.11698734 88.74576636 -77.41217234 85.96861135 -76.70751953 83.19140625 C-74.50483004 74.53422036 -72.23076814 65.91577903 -69.73510742 57.33789062 C-68.89445277 54.39722312 -68.11327586 51.44875382 -67.3581543 48.48510742 C-62.9317339 31.19253745 -58.04681486 17.84610876 -42.8503418 7.24291992 C-29.63425333 -0.53814992 -14.83913854 -0.04998951 0 0 Z " fill="#BFC0C1" transform="translate(113.850341796875,53.757080078125)"/>
<path d="M0 0 C0.81649021 -0.00538554 1.63298043 -0.01077108 2.47421277 -0.01631981 C5.19008794 -0.03054335 7.90547183 -0.02350963 10.62136841 -0.01637268 C12.5767455 -0.02207921 14.53211926 -0.02904457 16.48748779 -0.03717041 C21.7850854 -0.05508642 27.08251723 -0.05393623 32.38013601 -0.04822803 C36.80846187 -0.04513367 41.23675599 -0.05123144 45.66507733 -0.05726677 C56.11537838 -0.07130553 66.56559767 -0.06975633 77.01589966 -0.05836487 C87.78367537 -0.04688644 98.55120193 -0.06095627 109.31894481 -0.08776134 C118.57610381 -0.10994005 127.83318472 -0.11655075 137.09036839 -0.11068493 C142.61381251 -0.10731911 148.13709696 -0.10970555 153.66051865 -0.12693596 C158.85629435 -0.14243735 164.0517019 -0.13841398 169.24746323 -0.11963081 C171.14931164 -0.11595367 173.05118752 -0.11902776 174.95301056 -0.1295166 C187.60204978 -0.19392706 198.10025265 0.18185593 207.78167725 9.36959839 C213.87752871 16.47723329 215.95464539 25.75059077 218.11404419 34.6337738 C218.60226334 36.57830201 219.09048256 38.52283021 219.57870483 40.46735764 C220.26514479 43.21432429 220.94056492 45.96396215 221.61666107 48.71348953 C222.49093934 52.25828994 223.37828226 55.79981282 224.2649231 59.34153748 C225.33435341 63.61636433 226.40276937 67.89142894 227.46533203 72.16796875 C229.58702416 80.70600048 231.73867736 89.23548663 233.93435669 97.75486755 C234.19103119 98.75125748 234.44770569 99.7476474 234.7121582 100.77423096 C235.66440935 104.46720787 236.61800434 108.15983178 237.5743103 111.85176086 C239.76754053 120.32688927 241.92709941 128.77260822 243.51248169 137.38768005 C242.66602207 137.10475066 241.81956245 136.82182127 240.94745255 136.53031826 C227.66532652 132.6180574 214.67250701 132.82995245 200.91775513 132.88597107 C198.2550779 132.88218208 195.59244494 132.87682833 192.92977905 132.86959839 C186.48421429 132.85575562 180.03884711 132.86315426 173.59329197 132.87827397 C166.0721391 132.89523758 158.55103403 132.89191102 151.02986792 132.88817989 C137.6044365 132.88231816 124.17909924 132.89640851 110.75369263 132.92112732 C97.75235468 132.94506231 84.7511424 132.95212195 71.74978638 132.94163513 C57.5557654 132.93020667 43.36180236 132.92831817 29.16778207 132.94273323 C27.65235409 132.94425892 26.1369261 132.94577927 24.62149811 132.94729424 C23.87606846 132.94805205 23.13063882 132.94880986 22.3626204 132.94959064 C17.13023452 132.95431708 11.89787466 132.95249387 6.6654892 132.94822884 C0.28497895 132.94328483 -6.0954129 132.94936395 -12.47589615 132.96912313 C-15.72608849 132.97894316 -18.97606601 132.98253078 -22.22627258 132.97623062 C-25.75969116 132.97024196 -29.29258665 132.98285188 -32.82595825 133 C-33.83842818 132.99398995 -34.8508981 132.98797991 -35.89404893 132.98178774 C-43.11802493 133.04519841 -49.55532088 134.41821031 -56.48751831 136.38768005 C-57.81952158 136.72628924 -59.15233166 137.06184957 -60.48751831 137.38768005 C-57.3230367 124.66815231 -54.10349167 111.96291905 -50.86251831 99.26268005 C-50.60284271 98.24509613 -50.34316711 97.22751221 -50.07562256 96.17909241 C-46.4461026 81.96574757 -42.78103654 67.76223021 -39.05001831 53.57518005 C-38.85309387 52.8250061 -38.65616943 52.07483215 -38.45327759 51.30192566 C-37.33731885 47.05446565 -36.21115046 42.80991427 -35.0718689 38.56864929 C-34.66249987 37.04076298 -34.25573683 35.51217716 -33.85092163 33.983078 C-33.20143759 31.5340347 -32.5426983 29.08763859 -31.88204956 26.6415863 C-31.68527115 25.89330063 -31.48849274 25.14501495 -31.28575134 24.37405396 C-28.92206777 15.71268898 -24.29555556 8.17699658 -16.48751831 3.38768005 C-10.75109429 0.9083386 -6.21286366 -0.04991486 0 0 Z " fill="#FEFEFE" transform="translate(98.48751831054688,72.61231994628906)"/>
<path d="M0 0 C1.86744249 -0.00107509 3.73488465 -0.00301713 5.60232544 -0.00575256 C10.63722395 -0.01056683 15.67203272 -0.00298875 20.70692039 0.00720048 C25.9939689 0.01603595 31.28101506 0.01422249 36.56806946 0.01383972 C45.44041429 0.0147738 54.31272474 0.02342402 63.18505859 0.03710938 C73.42514684 0.05284664 83.66519752 0.05810681 93.90529698 0.05737382 C104.83785287 0.05669712 115.7703944 0.06364335 126.70294595 0.07282043 C129.84105945 0.07494588 132.97917062 0.07566079 136.11728477 0.07605934 C141.05611024 0.07706782 145.99490449 0.08320555 150.93371964 0.09322548 C152.74043016 0.09613244 154.54714427 0.09737953 156.35385704 0.09679794 C173.59261568 0.09335016 188.51756208 0.23640848 202.1496582 12.24291992 C202.82770508 12.81655273 203.50575195 13.39018555 204.2043457 13.98120117 C215.56849627 24.33758744 218.27863667 38.99535636 221.8371582 53.30541992 C222.35361686 55.33911186 222.87138028 57.37247286 223.39038086 59.40551758 C224.45872269 63.59873459 225.51947311 67.79376003 226.57397461 71.99047852 C228.08346234 77.99248648 229.61827511 83.98775866 231.16137695 89.98120117 C235.0728232 105.1841531 238.96746822 120.39074999 242.72216797 135.63330078 C244.46265903 142.63804872 246.29722107 149.61661897 248.1418457 156.59448242 C248.69146168 158.67934737 249.24102158 160.7642271 249.79052734 162.84912109 C250.88675657 167.00746504 251.99146322 171.16343847 253.10058594 175.31835938 C253.61334753 177.26057888 254.12581102 179.20287712 254.63793945 181.14526367 C254.87620453 182.02876495 255.1144696 182.91226624 255.35995483 183.82254028 C257.84027664 193.29034301 258.33101697 202.42200824 258.3371582 212.18041992 C258.3494043 213.20071289 258.36165039 214.22100586 258.37426758 215.2722168 C258.40642071 232.0668704 253.38534185 244.92068525 242.1574707 257.46948242 C225.41190308 273.83590512 203.01252356 272.54018154 181.2824707 272.48583984 C178.78098501 272.48691431 176.27949956 272.48885542 173.77801514 272.49159241 C167.71789867 272.49591794 161.65785476 272.49103245 155.59774923 272.48174211 C148.52436471 272.47129326 141.4509917 272.47143002 134.37760091 272.47191469 C121.74757202 272.47241401 109.11756855 272.46328928 96.48754883 272.44873047 C84.2622837 272.43464574 72.03704093 272.42755983 59.81176758 272.42822266 C58.68215194 272.42828259 58.68215194 272.42828259 57.52971578 272.42834374 C56.40195607 272.42840427 56.40195607 272.42840427 55.25141335 272.42846602 C41.28947101 272.42915788 27.32753807 272.42325432 13.3655988 272.41431281 C8.44777275 272.41131073 3.52994845 272.41023495 -1.38787842 272.4097805 C-8.01998522 272.40902259 -14.6520718 272.40262984 -21.28417206 272.39261436 C-23.71003833 272.38970858 -26.13590727 272.38846007 -28.56177521 272.3890419 C-73.91977733 272.39580056 -73.91977733 272.39580056 -90.6003418 257.11791992 C-105.28058385 241.14236239 -106.49455331 223.72458775 -105.9777832 203.12036133 C-105.69132276 196.65250159 -104.40944575 190.51687435 -102.8503418 184.24291992 C-102.59800781 183.19523438 -102.34567383 182.14754883 -102.08569336 181.06811523 C-99.22800367 169.21508616 -96.21653525 157.42839167 -92.83496094 145.71362305 C-91.21964503 140.01976465 -89.75389467 134.28920378 -88.2878418 128.55541992 C-87.95239409 127.25012053 -87.61677624 125.94486486 -87.28100586 124.63964844 C-85.42961062 117.43609895 -83.59124589 110.22923734 -81.75575256 103.0216217 C-80.77940001 99.18830932 -79.80177372 95.35532203 -78.82424927 91.52230835 C-78.11698734 88.74576636 -77.41217234 85.96861135 -76.70751953 83.19140625 C-74.50483004 74.53422036 -72.23076814 65.91577903 -69.73510742 57.33789062 C-68.89445277 54.39722312 -68.11327586 51.44875382 -67.3581543 48.48510742 C-62.9317339 31.19253745 -58.04681486 17.84610876 -42.8503418 7.24291992 C-29.63425333 -0.53814992 -14.83913854 -0.04998951 0 0 Z M-37.1628418 26.55541992 C-37.77772461 27.08780273 -38.39260742 27.62018555 -39.02612305 28.16870117 C-43.59200097 33.36030969 -45.64115208 39.05126177 -47.3190918 45.62182617 C-47.63287781 46.80005699 -47.63287781 46.80005699 -47.95300293 48.00209045 C-48.38462687 49.62675416 -48.81199666 51.25255401 -49.23510742 52.87945557 C-49.80524211 55.06966642 -50.38724017 57.25620605 -50.9753418 59.44165039 C-52.11511924 63.68405117 -53.23449084 67.9316715 -54.3503418 72.18041992 C-54.55466827 72.95697937 -54.75899475 73.73353882 -54.96951294 74.53363037 C-62.11757597 101.72002982 -69.06953562 128.9625606 -75.8503418 156.24291992 C-74.58065237 155.81852583 -74.58065237 155.81852583 -73.28531265 155.38555813 C-60.00318663 151.47329726 -47.01036712 151.68519231 -33.25561523 151.74121094 C-30.59293801 151.73742195 -27.93030505 151.7320682 -25.26763916 151.72483826 C-18.8220744 151.71099549 -12.37670721 151.71839413 -5.93115208 151.73351384 C1.59000079 151.75047744 9.11110587 151.74715089 16.63227198 151.74341976 C30.0577034 151.73755803 43.48304066 151.75164838 56.90844727 151.77636719 C69.90978521 151.80030218 82.91099749 151.80736182 95.91235352 151.796875 C110.10637449 151.78544653 124.30033753 151.78355804 138.49435782 151.7979731 C140.00978581 151.79949879 141.52521379 151.80101914 143.04064178 151.8025341 C143.78607143 151.80329192 144.53150107 151.80404973 145.29951949 151.80483051 C150.53190538 151.80955695 155.76426523 151.80773374 160.9966507 151.8034687 C167.37716094 151.7985247 173.75755279 151.80460382 180.13803604 151.824363 C183.38822838 151.83418303 186.6382059 151.83777065 189.88841248 151.83147049 C193.42183106 151.82548183 196.95472655 151.83809174 200.48809814 151.85523987 C201.50056807 151.84922982 202.51303799 151.84321978 203.55618882 151.83702761 C210.78016482 151.90043828 217.21746077 153.27345018 224.1496582 155.24291992 C225.48166147 155.58152911 226.81447155 155.91708944 228.1496582 156.24291992 C226.2044482 146.80503669 223.98971066 137.48748955 221.53637695 128.16870117 C220.82223616 125.43445739 220.11120998 122.69941046 219.40112305 119.96411133 C219.21750749 119.25721633 219.03389193 118.55032133 218.84471226 117.82200527 C216.90744448 110.34323842 215.04223387 102.84687889 213.18133926 95.3488121 C212.02969959 90.71354671 210.87021517 86.0802354 209.71182442 81.44665337 C208.72808055 77.50880264 207.74884209 73.56991772 206.77783203 69.62890625 C205.81274822 65.7131684 204.83612266 61.80046781 203.85181236 57.88952065 C203.48610938 56.42792832 203.12446518 54.96531316 202.767313 53.50160789 C199.7933551 41.32783432 196.85553125 30.64246652 186.1496582 23.24291992 C177.10655684 17.79362815 166.96576826 18.67795284 156.79785156 18.7253418 C154.84055563 18.71991522 152.88326379 18.71278956 150.92597961 18.70410156 C145.63264519 18.68593029 140.33962405 18.69290983 135.04628444 18.7056179 C129.49581889 18.71577627 123.94537937 18.70634449 118.39491272 18.70007324 C109.07670294 18.69280571 99.75862017 18.70236174 90.44042969 18.72143555 C79.6793993 18.74320889 68.91867204 18.73614586 58.15764898 18.71412992 C48.90385377 18.69595811 39.65014963 18.69342614 30.39634234 18.7038846 C24.87576459 18.71010889 19.35532917 18.71098429 13.83476067 18.69773865 C8.64469067 18.68615467 3.45501029 18.69425257 -1.73501778 18.71731567 C-3.6356695 18.72258886 -5.5363542 18.72111289 -7.43699265 18.71226501 C-23.50940007 18.63146815 -23.50940007 18.63146815 -37.1628418 26.55541992 Z M-69.8503418 172.24291992 C-69.8503418 172.90291992 -69.8503418 173.56291992 -69.8503418 174.24291992 C-71.5003418 174.57291992 -73.1503418 174.90291992 -74.8503418 175.24291992 C-74.8503418 175.90291992 -74.8503418 176.56291992 -74.8503418 177.24291992 C-75.5103418 177.24291992 -76.1703418 177.24291992 -76.8503418 177.24291992 C-80.12906051 180.0187276 -81.79038559 182.76153792 -83.4753418 186.68041992 C-83.88010742 187.60725586 -84.28487305 188.5340918 -84.7019043 189.48901367 C-85.08088867 190.39780273 -85.45987305 191.3065918 -85.8503418 192.24291992 C-86.1985498 193.00765625 -86.54675781 193.77239258 -86.90551758 194.56030273 C-87.94543277 197.51290948 -88.10870516 199.79542033 -88.1159668 202.91870117 C-88.11854492 203.99442383 -88.12112305 205.07014648 -88.1237793 206.1784668 C-88.11604492 207.29286133 -88.10831055 208.40725586 -88.1003418 209.55541992 C-88.10807617 210.65821289 -88.11581055 211.76100586 -88.1237793 212.8972168 C-88.09777778 223.78535095 -86.40579024 234.86035438 -78.5378418 242.99291992 C-77.32688792 244.09657409 -76.09807286 245.18102115 -74.8503418 246.24291992 C-74.32698242 246.71729492 -73.80362305 247.19166992 -73.2644043 247.68041992 C-65.31404866 254.19583332 -54.37274336 254.69125365 -44.51026917 254.62387085 C-43.43521415 254.62855082 -42.36015914 254.63323079 -41.2525267 254.63805258 C-37.68547454 254.64992468 -34.11881215 254.64057575 -30.55175781 254.63110352 C-27.97997821 254.63517269 -25.40820035 254.64051651 -22.83642578 254.64703369 C-16.59722455 254.66031819 -10.35813207 254.65751688 -4.11892671 254.64879577 C0.95600858 254.64199809 6.03091358 254.64111147 11.10585213 254.64436722 C12.19266322 254.64505677 12.19266322 254.64505677 13.30143009 254.64576025 C14.77370819 254.6467195 16.24598627 254.64769214 17.71826435 254.64867802 C31.49855792 254.65721659 45.27879146 254.64742223 59.05907518 254.63127692 C70.86021429 254.61787797 82.66126484 254.62020131 94.46240234 254.6340332 C108.1945779 254.65012109 121.92670092 254.65638978 135.65888458 254.64719641 C137.12580589 254.64624085 138.5927272 254.64529774 140.05964851 254.64436722 C140.7812404 254.64390439 141.50283229 254.64344156 142.24629061 254.64296471 C147.30934763 254.64038422 152.37237108 254.64472549 157.4354229 254.65180588 C164.26207684 254.66114345 171.08856162 254.65440803 177.91519928 254.63712311 C180.41404761 254.63317141 182.91291007 254.6342696 185.4117527 254.6409111 C206.85332526 255.67528407 206.85332526 255.67528407 225.7121582 247.30541992 C226.8587793 246.30188477 226.8587793 246.30188477 228.02856445 245.27807617 C229.07850586 244.27067383 229.07850586 244.27067383 230.1496582 243.24291992 C230.84575195 242.6215918 231.5418457 242.00026367 232.2590332 241.36010742 C234.51689966 238.83167019 235.58112052 236.44749527 236.8371582 233.30541992 C237.46170898 231.77594727 237.46170898 231.77594727 238.09887695 230.21557617 C243.09065759 216.0938473 241.5157128 198.92255754 235.95043945 185.28979492 C234.02755014 182.03631627 232.20385707 180.41693235 229.1496582 178.24291992 C228.64950195 177.71827148 228.1493457 177.19362305 227.6340332 176.65307617 C225.73267271 174.8467837 223.74702258 173.84316719 221.3996582 172.68041992 C220.57981445 172.26663086 219.7599707 171.8528418 218.9152832 171.42651367 C211.90859807 168.42788995 205.92765554 167.95361305 198.37289429 167.98222351 C197.29802785 167.97839796 196.2231614 167.97457242 195.11572325 167.97063094 C191.5194003 167.9603247 187.92323772 167.96428869 184.3269043 167.96826172 C181.74601087 167.96391384 179.16511873 167.95873043 176.58422852 167.95277405 C170.30359191 167.94003807 164.02299809 167.93823213 157.74235074 167.94057431 C152.63345182 167.94235955 147.52456586 167.94060341 142.41566849 167.93634987 C141.68767495 167.93575468 140.95968141 167.93515949 140.20962746 167.93454627 C138.7305047 167.93333446 137.25138194 167.93212033 135.77225919 167.93090389 C121.90568571 167.92003173 108.03913656 167.92218879 94.17256172 167.92828874 C81.50736648 167.93345262 68.84224828 167.92221585 56.17706828 167.90319052 C43.15564373 167.88378095 30.13425556 167.87556189 17.11281645 167.87931377 C9.80915711 167.88122173 2.50556324 167.8787783 -4.79808426 167.86459923 C-11.67144646 167.85139016 -18.54465265 167.8539878 -25.41801453 167.86701012 C-27.93460009 167.86937055 -30.45119655 167.86666044 -32.96776962 167.85838699 C-51.87432105 167.23260103 -51.87432105 167.23260103 -69.8503418 172.24291992 Z " fill="#090909" transform="translate(113.850341796875,53.757080078125)"/>
<path d="M0 0 C1.01550934 -0.00554901 2.03101868 -0.01109802 3.07730103 -0.01681519 C6.41977759 -0.02858497 9.7608906 -0.00436361 13.10327148 0.02148438 C15.43301837 0.02319612 17.76276719 0.02312915 20.09251404 0.0213623 C24.96892793 0.023014 29.84488125 0.04168654 34.72119141 0.07324219 C40.96791503 0.11294076 47.2140363 0.11728378 53.46086216 0.10977936 C58.26931769 0.10670834 63.07763811 0.11883463 67.88606071 0.13591003 C70.1893218 0.14293455 72.49259819 0.14606523 74.79586983 0.1452179 C78.01523594 0.14701786 81.23388335 0.16841699 84.453125 0.1953125 C85.40238358 0.1923819 86.35164215 0.18945129 87.32966614 0.18643188 C92.49980438 0.25299132 96.22698545 0.65278856 100.66186523 3.61523438 C102.74096713 6.73388722 102.94345898 7.15262959 102.53686523 10.61523438 C102.47241211 11.29585938 102.40795898 11.97648437 102.34155273 12.67773438 C101.39834863 15.36640814 100.05722528 16.12052002 97.66186523 17.61523438 C95.44731903 17.99834442 95.44731903 17.99834442 92.99377441 18.00964355 C92.0600853 18.02099335 91.12639618 18.03234314 90.16441345 18.04403687 C89.14714676 18.04110626 88.12988007 18.03817566 87.08178711 18.03515625 C85.46657921 18.04786057 85.46657921 18.04786057 83.81874084 18.06082153 C80.25591251 18.08423941 76.69351474 18.08521261 73.13061523 18.08398438 C70.65726548 18.09108237 68.18391738 18.09878083 65.71057129 18.10705566 C60.52550682 18.12051104 55.34059464 18.12206413 50.15551758 18.11621094 C43.50362968 18.11031 36.85273627 18.14091799 30.20095062 18.18132782 C25.09320116 18.20714634 19.9856286 18.21008759 14.87782288 18.20643616 C12.42495388 18.20813248 9.97207716 18.21782384 7.51927185 18.23558044 C4.09299568 18.25765646 0.66821338 18.24812506 -2.75805664 18.23046875 C-4.28395668 18.25036362 -4.28395668 18.25036362 -5.84068298 18.2706604 C-12.6911692 18.18842132 -12.6911692 18.18842132 -15.9564209 15.29553223 C-17.82850437 11.66399793 -18.12886171 9.64075335 -17.33813477 5.61523438 C-11.73322178 0.42928677 -7.45486748 -0.1043836 0 0 Z " fill="#060606" transform="translate(195.338134765625,255.384765625)"/>
<path d="M0 0 C3.01286852 1.76997892 5.41228811 3.82457623 7 7 C7.13569519 11.93348954 6.70587744 15.15294707 3.5 19 C2.675 19.66 1.85 20.32 1 21 C0.67 21.33 0.34 21.66 0 22 C-3.62614906 22.27893454 -6.33906056 22.25536297 -9.75 20.9375 C-12.86098819 18.25859351 -13.82486646 15.9171118 -15 12 C-15.08067541 7.3208261 -14.52936625 5.60683448 -11.4375 2.0625 C-7.80628269 -0.55859451 -4.33274134 -1.10256638 0 0 Z " fill="#0A0A0A" transform="translate(106,254)"/>
<path d="M0 0 C1.85882032 7.20859589 0.2061281 11.43030001 -3 18 C-4.63129887 13.93714243 -3.29968777 10.79897816 -2.0625 6.75 C-1.68222656 5.48671875 -1.30195312 4.2234375 -0.91015625 2.921875 C-0.60980469 1.95765625 -0.30945312 0.9934375 0 0 Z " fill="#636363" transform="translate(47,100)"/>
<path d="M0 0 C0.66 0.33 1.32 0.66 2 1 C-0.24578442 4.40739705 -2.51137122 7.76478258 -5 11 C-4.50769231 4.6 -4.50769231 4.6 -1.9375 1.5625 C-0.9784375 0.7890625 -0.9784375 0.7890625 0 0 Z " fill="#333333" transform="translate(96,255)"/>
<path d="M0 0 C0 0.66 0 1.32 0 2 C-0.99 2 -1.98 2 -3 2 C-3 2.66 -3 3.32 -3 4 C-6.96 5.98 -6.96 5.98 -11 8 C-11 7.34 -11 6.68 -11 6 C-9.1015625 4.4921875 -9.1015625 4.4921875 -6.625 2.875 C-5.81289062 2.33617187 -5.00078125 1.79734375 -4.1640625 1.2421875 C-2 0 -2 0 0 0 Z " fill="#505050" transform="translate(75,60)"/>
<path d="M0 0 C1.2065625 0.0309375 1.2065625 0.0309375 2.4375 0.0625 C2.4375 0.7225 2.4375 1.3825 2.4375 2.0625 C3.0975 2.0625 3.7575 2.0625 4.4375 2.0625 C4.4375 2.7225 4.4375 3.3825 4.4375 4.0625 C3.4475 4.3925 2.4575 4.7225 1.4375 5.0625 C-1.25 3.125 -1.25 3.125 -3.5625 1.0625 C-2.5625 0.0625 -2.5625 0.0625 0 0 Z " fill="#1B1B1B" transform="translate(338.5625,224.9375)"/>
<path d="M0 0 C0.99 1.32 1.98 2.64 3 4 C1.68 5.32 0.36 6.64 -1 8 C-2 6 -2 6 -1.0625 2.875 C-0.5365625 1.451875 -0.5365625 1.451875 0 0 Z " fill="#3E3E3E" transform="translate(52,83)"/>
<path d="M0 0 C0 3 0 3 -2 6 C-4.625 6.1875 -4.625 6.1875 -7 6 C-4.74259377 3.66475218 -2.7194239 1.81294927 0 0 Z " fill="#3A3A3A" transform="translate(342,298)"/>
</svg>
